<svg xmlns="http://www.w3.org/2000/svg" version="1.1" width="600px" height="600px" viewBox="0 0 200 200" style="overflow:hidden!important;"><g id="svga-group-wrapper"><g id="svga-group-backs-single"><path id="SvgjsPath9744" d="M0 0h200v200H0V0z" fill="#568a96" stroke-width="none" opacity="1" stroke="none"></path></g><g id="svga-group-humanwrap-move" transform="matrix(1,0,0,1,0,0)"><g id="svga-group-humanwrap"><g id="svga-group-hair-back-move" transform="matrix(1,0,0,1,0,0)"><g id="svga-group-hair-back"></g></g><g id="svga-group-humanbody-back"><path id="SvgjsPath4646" d="m170 180.3-27.3-6.9-18-9.9-1.5-28.2H76.8l-1.5 28.2-18 9.9-27.3 6.9-9.1 19.7-3 20h164.2l-3-20z" fill="#144050" stroke-width="none" opacity="1" stroke="none"></path><path id="SvgjsPath4647" d="m76.8 135.3-1.5 28.2-18 9.9-27.3 6.9-9.1 19.7-3 20h14.6v-20l2.7-17.7 23.8-6.4 24.7-8.3 3.5-32.3z" fill="#022531" stroke-width="none" opacity="1" stroke="none"></path></g><g id="svga-group-chinshadow-single"><path id="SvgjsPath4642" d="m112.9 157.7 10.7-14.9-.4-7.5H76.8l-.8 14.8 5.5 7.6 6.2 3.5h19z" fill="#001922" stroke-width="none" opacity="1" stroke="none"></path></g><g id="svga-group-humanbody-front"><path id="SvgjsPath4648" d="m92.8 168.3 2 7.9 6.9 4.6s-8.5-3-8.7-3.6c-.2-.6-.2-8.9-.2-8.9z" fill="#022531" stroke-width="none" opacity="1" stroke="none"></path></g><g id="svga-group-clothes-single"><path id="SvgjsPath9749" d="m143.53 172.73-10.43 16.82-18.47 10.43H85.37L66.9 189.55l-10.43-16.82-13.16 3.66 5.3 19.2.91 24.41H150.48l.91-24.41 5.3-19.2z" fill="#ff005f" stroke-width="none" opacity="1"></path><path id="SvgjsPath9750" d="m136.42 191.88-20.8 12.73H84.38l-20.8-12.73-9.77-17.83 8.49 18.39 21.65 12.88h32.1l21.65-12.88 8.49-18.39z" fill="#f00059" stroke-width="none" opacity="1"></path></g><g id="svga-group-head" transform="matrix(1,0,0,1,0,0)"><g id="svga-group-ears-left-move" transform="matrix(1,0,0,1,0,0)"><g id="svga-group-ears-left"><path id="SvgjsPath5476" d="M64.4 96.3s-7.6-6.9-9.2-8c0 0-3.7 1-6.6 2l2.7 9.3 2.9 8.6 1.4 11.5 4.2-.3 5.9-10-1.3-13.1z" fill="#144050" stroke-width="none" opacity="1" stroke="none"></path><path id="SvgjsPath5477" d="M50.4 91.2 55 93l4.4 9.4-.5 8.9-3.4-5.6-.2-4.9s1.2-1.1 1.1-1.5-1.9-5.2-1.9-5.2l-3.7-2s1.3 5.7 1.1 5.4c-.1-.3-2.2-6.2-2.2-6.2l.7-.1z" fill="#022531" stroke-width="none" opacity="1" stroke="none"></path><path id="SvgjsPath5478" d="M52.66 89.03c1.5-.4 2.54-.73 2.54-.73 1.6 1.1 9.2 8 9.2 8l1.3 13.1-5.9 10-4.2.3 4.3-2.9 2.3-15.7-5.9-10.3-3.64-1.77z" fill="#0a3241" stroke-width="none" opacity="1" stroke="none"></path></g></g><g id="svga-group-ears-right-move" transform="matrix(1,0,0,1,0,0)"><g id="svga-group-ears-right"><path id="SvgjsPath5479" d="M135.6 96.3s7.6-6.9 9.2-8c0 0 3.7 1 6.6 2l-2.7 9.3-2.9 8.6-1.4 11.5-4.2-.3-5.9-10 1.3-13.1z" fill="#144050" stroke-width="none" opacity="1" stroke="none"></path><path id="SvgjsPath5480" d="M149.6 91.2 145 93l-4.4 9.4.5 8.9 3.4-5.6.2-4.9s-1.2-1.1-1.1-1.5c.1-.3 1.9-5.2 1.9-5.2l3.7-2s-1.3 5.7-1.1 5.4c.1-.3 2.2-6.2 2.2-6.2l-.7-.1z" fill="#022531" stroke-width="none" opacity="1" stroke="none"></path><path id="SvgjsPath5481" d="M147.32 89.04c-1.5-.4-2.53-.78-2.53-.78-1.6 1.1-9.2 8.03-9.2 8.03l-1.3 13.1 5.9 10 4.2.3-4.3-2.9-2.3-15.7 5.9-10.3 3.63-1.75z" fill="#0a3241" stroke-width="none" opacity="1" stroke="none"></path></g></g><g id="svga-group-faceshape-wrap"><g id="svga-group-faceshape-single"><path id="SvgjsPath4628" d="M138.1 60c-6.9-11.6-19.7-19.5-19.7-19.5-7.2-1.5-18.4-2.3-18.4-2.3s-11.1.8-18.4 2.3c0 0-12.8 7.9-19.7 19.5 0 0-5.1 14.5-5.3 24.8l1 29.9 26.7 37.4 6.2 3.5h19l6.2-3.5 26.7-37.4 1-29.9c-.2-10.3-5.3-24.8-5.3-24.8z" fill="#144050" stroke-width="none" opacity="1" stroke="none"></path><path id="SvgjsPath4629" d="m91 153.7-4.9-5.3-22-36.1-1.3-25.6 3.3-23.3L82.5 44l17.4-3.6 18.5.1c-7.2-1.5-18.4-2.3-18.4-2.3s-11.1.8-18.4 2.3c0 0-12.8 7.9-19.7 19.5 0 0-5.1 14.5-5.3 24.8l1 29.9 26.7 37.4 6.2 3.5h19l6.2-3.5-8.6 1.5-16.1.1z" fill="#022531" stroke-width="none" opacity="1" stroke="none"></path></g></g><g id="svga-group-mouth-single-move" transform="matrix(1,0,0,1,0,0)"><g id="svga-group-mouth-single"><path id="SvgjsPath4716" d="m91.05 134.5 3.1 2.2 5.6-.2 6.6.6 2.7-2-2.9 1-6.5-.5-5.5.2z" fill="#022531" stroke-width="none" opacity="1" transform="translate(0 2)" stroke="none"></path><path id="SvgjsPath4717" d="m89.17 128.58-1.77 2.59 7.88-2.14 2.49 1.51 3.83.27 2.37-1.45 9.7 2.06-1.77-1.92-8.85-5.39-3.26.99-2.89-1.13z" fill="#bdbdbd" stroke-width="none" opacity="1" transform="translate(0 2)" stroke="none"></path><path id="SvgjsPath4718" d="m85.3 129.9 2.3 1.9 7.5-2.4 2.8 1.6 3.7.1 2.6-1.5 9.5 2.3 1.87-1.35-2.07.45-9.6-2.7-2.5 1.9-3.5-.1-2.7-2-7.8 2.7z" fill="#aeaeae" stroke-width="none" opacity="1" transform="translate(0 2)" stroke="none"></path></g></g><g id="svga-group-eyes-left-move" transform="matrix(1,0,0,1,0,0)"><g id="svga-group-eyes-left"><g id="svga-group-eyesback-left"><path id="SvgjsPath6688" d="m91.1 97-4.5-5.3-10.7-.6-7.7 4.2 11.5 3.8z" fill="#ffffff" stroke-width="none" opacity="1"></path></g><g id="svga-group-eyesiriswrapper-left" transform="matrix(1,0,0,1,0,0)"><g id="svga-group-eyesiriscontrol-left" transform="matrix(1,0,0,1,0,0)"><g id="svga-group-eyesiris-left"><path id="SvgjsPath7821" d="M82.9 89.5h-4L76 92.4v4.1l2.9 2.8h4l2.9-2.8v-4.1z" fill="#ff4cad" stroke-width="none" opacity="1"></path><path id="SvgjsPath7822" d="M86.1 96.5v-2c0-.7 0-1.4-.1-2v-.2c-.5-.5-1-.9-1.5-1.4-.2-.2-.5-.5-.8-.7-.2-.2-.5-.4-.8-.7-.3 0-.7 0-1-.1s-.7 0-1-.1c-.7 0-1.4-.1-2.1-.1h-.1l-.1.1c-.5.5-1 .9-1.5 1.4l-.7.7-.7.7-.1.1v.1l.1 2c0 .7.1 1.4.1 2l.7.7.7.7c.5.5.9 1 1.4 1.5h.1c.7 0 1.4.1 2 .1H83l.1-.1 1.5-1.4.7-.7.7-.7.1-.1v.2zm-1.2.5-.7.7-1.3 1.4H81c-.7 0-1.3 0-2 .1-.5-.4-1-.9-1.4-1.4l-.7-.7-.7-.7c0-.7 0-1.3.1-2l.1-1.9.7-.7.7-.7 1.4-1.4c.6 0 1.3 0 1.9-.1.3 0 .7 0 1-.1.3 0 .7 0 1-.1l.7.8c.2.2.5.5.7.8.4.5.9.9 1.3 1.4 0 .7 0 1.3-.1 1.9v1.9l-.8.8z" fill="#e01684" stroke-width="none" opacity="1"></path><path id="SvgjsPath7823" d="m82.6 93.2.4 1.5-.8 1.4-1.6.4-1.4-.8-.4-1.6.8-1.4 1.6-.4z" fill="#000000" stroke-width="none" opacity="1"></path><path id="SvgjsPath7824" d="m80.6 96.7-1.5-.9-.4-1.7.9-1.5 1.7-.4 1.5.9.4 1.7-.9 1.5-1.7.4zm-1.2-1.1 1.3.8 1.4-.4.8-1.3-.4-1.4-1.3-.8-1.4.4-.8 1.3.4 1.4z" fill="#e01684" stroke-width="none" opacity="1"></path><path id="SvgjsPath7825" d="m78.7 90.9.8-.4 1.1 2.4-.8.4-1.1-2.4z" fill="#ffffff" stroke-width="none" opacity="1"></path><path id="SvgjsPath7826" d="M81.2 95.5h1v1h-1v-1z" fill="#ffffff" stroke-width="none" opacity="1"></path></g></g></g><g id="svga-group-eyesfront-left"><path id="SvgjsPath6696" d="M67.1 89.3v11.9l7.9 8.4h11.2l7.9-8.4V89.3l-7.9-8.4H75l-7.9 8.4zm1.1 6 7.7-4.2 10.7.6 4.5 5.3-11.5 2.1-11.4-3.8z" fill="#144050" stroke-width="none" opacity="1" stroke="none"></path><path id="SvgjsPath6697" d="m67.7 95.5 8-4.8 11.4.1 6.6 6.7-3 2.9-8.1 3.2 6.5-3.8 1.9-2.7-4.3-5-11.1-.4z" fill="#022531" stroke-width="none" opacity="1" stroke="none"></path></g></g></g><g id="svga-group-eyes-right-move" transform="matrix(1,0,0,1,0,0)"><g id="svga-group-eyes-right"><g id="svga-group-eyesback-right"><path id="SvgjsPath6689" d="m108.9 97 4.5-5.3 10.7-.6 7.7 4.2-11.5 3.8z" fill="#ffffff" stroke-width="none" opacity="1"></path></g><g id="svga-group-eyesiriswrapper-right" transform="matrix(1,0,0,1,0,0)"><g id="svga-group-eyesiriscontrol-right" transform="matrix(1,0,0,1,0,0)"><g id="svga-group-eyesiris-right"><path id="SvgjsPath7827" d="M121.1 89.5H117l-2.9 2.9v4.1l2.9 2.8h4.1l2.8-2.8v-4.1z" fill="#ff4cad" stroke-width="none" opacity="1"></path><path id="SvgjsPath7828" d="M124.2 96.5v-2c0-.7 0-1.4-.1-2v-.1l-.1-.1c-.5-.5-1-.9-1.5-1.4-.2-.2-.5-.5-.8-.7-.2-.2-.5-.4-.8-.7-.3 0-.7 0-1-.1s-.7 0-1-.1c-.7 0-1.4-.1-2.1-.1h-.1l-.1.1c-.5.5-1 .9-1.5 1.4l-.7.7-.7.7-.1.1v.1l.1 2c0 .7.1 1.4.1 2l.7.7.7.7c.5.5.9 1 1.4 1.5h.1c.7 0 1.4.1 2 .1h2.1l.1-.1 1.5-1.4.7-.7.7-.7.1-.1.3.2zm-1.2.5-.7.7-1.3 1.4h-1.9c-.7 0-1.3 0-2 .1-.5-.4-1-.9-1.4-1.4l-.7-.7-.7-.7c0-.7 0-1.3.1-2l.1-1.9.7-.7.7-.7 1.4-1.4c.6 0 1.3 0 1.9-.1.3 0 .7 0 1-.1.3 0 .7 0 1-.1l.7.8c.2.2.5.5.7.8.4.5.9.9 1.3 1.4 0 .7 0 1.3-.1 1.9v1.9l-.8.8z" fill="#e01684" stroke-width="none" opacity="1"></path><path id="SvgjsPath7829" d="m120.7 93.2.4 1.5-.8 1.4-1.6.4-1.4-.8-.4-1.6.9-1.4 1.5-.4z" fill="#000000" stroke-width="none" opacity="1"></path><path id="SvgjsPath7830" d="m118.7 96.7-1.5-.9-.4-1.7.9-1.5 1.7-.4 1.5.9.4 1.7-.9 1.5-1.7.4zm-1.2-1.1 1.3.8 1.4-.4.8-1.3-.4-1.4-1.3-.8-1.4.4-.8 1.3.4 1.4z" fill="#e01684" stroke-width="none" opacity="1"></path><path id="SvgjsPath7831" d="m116.8 90.9.8-.4 1.1 2.4-.8.4-1.1-2.4z" fill="#ffffff" stroke-width="none" opacity="1"></path><path id="SvgjsPath7832" d="M119.3 95.5h1v1h-1v-1z" fill="#ffffff" stroke-width="none" opacity="1"></path></g></g></g><g id="svga-group-eyesfront-right"><path id="SvgjsPath6698" d="M125 80.8h-11.2l-7.9 8.4v11.9l7.9 8.4H125l7.9-8.4V89.3l-7.9-8.5zm-4.7 18.3L108.9 97l4.5-5.3 10.7-.6 7.7 4.2-11.5 3.8z" fill="#144050" stroke-width="none" opacity="1" stroke="none"></path><path id="SvgjsPath6701" d="m132.3 95.5-8-4.8-11.4.1-6.6 6.7 3 2.9 8.1 3.2-6.5-3.8-1.9-2.7 4.3-5 11.1-.4z" fill="#022531" stroke-width="none" opacity="1" stroke="none"></path></g></g></g><g id="svga-group-facehighlight-single"></g><g id="svga-group-eyebrows-left-move" transform="matrix(1,0,0,1,0,0)"><g id="svga-group-eyebrows-left-rotate" transform="matrix(1,1.7453292519943295e-9,-1.7453292519943295e-9,1,1.4451326535436237e-7,-1.3849188462700113e-7)"><g id="svga-group-eyebrows-left"><path id="SvgjsPath8163" d="m93.58 85.39-1.3 2.72-18.78-7.17-10.68 3.59 11.09-5.86z" fill="#ffffff" stroke-width="none" opacity="1" stroke="none"></path></g></g></g><g id="svga-group-eyebrows-right-move" transform="matrix(1,0,0,1,0,0)"><g id="svga-group-eyebrows-right-rotate" transform="matrix(1,1.7453292519943295e-9,-1.7453292519943295e-9,1,1.4451326535436237e-7,-2.1057397248114285e-7)"><g id="svga-group-eyebrows-right"><path id="SvgjsPath8164" d="m106.42 85.39 1.3 2.72 18.78-7.17 10.68 3.59-11.09-5.86z" fill="#ffffff" stroke-width="none" opacity="1" stroke="none"></path></g></g></g><g id="svga-group-beardwrap"><g id="svga-group-beard-single-move" transform="matrix(1,0,0,1,0,0)"><g id="svga-group-beard-single"><path id="SvgjsPath9362" d="m83.1 148.8 8 11.7 9.1 1.6 9.3-2.3 8.1-11.6-1.6-1.9-8-1.3H91.9l-6.1 1.6z" fill="#d0bcd3" stroke-width="none" opacity="1" stroke="none"></path><path id="SvgjsPath9363" d="M116 146.3h-.2l-7.4 11.8-.7.2 2.5-10.5-4.2 11-2.3.7-.7-4.4-.4 4.7-1.6.5-1.9-8.2.2 8.1-3.1-1.4-3.6-11.3 1.6 10.4-1.5-.6-5.2-11.3-1.7.5-2.7 2.2 8 11.7 9 1.6 9.3-2.4 8.1-11.6-1.5-1.7zM96.7 145h-2.2c.7 2.6 3 11.1 3.1 11.7-.2-.6-.7-8.9-.9-11.7zm6.1 0h-1.7c.1 2.9.3 10.5.3 10.1 0-.5 1-7.5 1.4-10.1zm5.2 0h-2.2l-.6 10.3 3.3-10.2-.5-.1z" fill="#be9bc4" stroke-width="none" opacity="1" stroke="none"></path></g></g></g><g id="svga-group-mustache-single-move" transform="matrix(1,0,0,1,0,0)"><g id="svga-group-mustache-single"><path id="SvgjsPath9122" d="m99.8 120.7-.1 2.5-.5 1.3-10.3-.5-5.5-.5v-.7l9.5-1.9 6.9-.2zm1.1 0 .1 2.5.5 1.3 10.3-.5 5.6-.5v-.7l-9.6-1.9-6.9-.2z" fill="#d0bcd3" stroke-width="none" opacity="1"></path><path id="SvgjsPath9123" d="m99.1 121.2-1.8 1.5-.9 1.2 1.8-1.4.9-1.3zm-1.3.2s-1.5 1.2-1.6 1.2-3 1.2-3 1.2l2.3-1.2 2.3-1.2zm-3-.1-1.5 1.3-2.9 1.2 2.5-1.4 1.9-1.1zm1.5-.1-1.6 1 2.8-1h-1.2zm-3.8.4-2.9.9-2.1 1.1 2.6-.9 2.4-1.1zm-4.3.6c-.2.1-1.7.5-1.7.5l-.9.5 1.8-.5.8-.5zm-4.3.9 1.7-.4-.9.5-.8-.1zm17.7-1.9 1.8 1.5.9 1.2-1.8-1.4-.9-1.3zm1.3.2s1.5 1.2 1.6 1.2 3 1.2 3 1.2l-2.3-1.2-2.3-1.2zm3-.1 1.5 1.3 2.9 1.2-2.5-1.4-1.9-1.1zm-1.5-.1 1.6 1-2.8-1h1.2zm3.8.4 2.9.9 2.1 1.1-2.6-.9-2.4-1.1zm4.4.6c.2.1 1.7.5 1.7.5l.9.5-1.8-.5-.8-.5zm4.2.9-1.7-.4.9.5.8-.1z" fill="#e2e0e2" stroke-width="none" opacity="1"></path></g></g><g id="svga-group-nose-single-move" transform="matrix(1,0,0,1,0,0)"><g id="svga-group-nose-single"><path id="SvgjsPath5150" d="m104.02 101.62 6.37 11.09-2.65 3.58-2.86-2.01-1.86 3.72h-6.3l-1.79-3.72-2.93 1.86-2.58-3.65 6.73-11.37 3.86-1.65z" fill="#144050" stroke-width="none" opacity="1" transform="translate(0 1)" stroke="none"></path><path id="SvgjsPath5151" d="m104.31 101.38-1.02-.41 6.61 11.51-2.05 2.93-1.77-1.21.28-1.31-1.4.6-2.05 4.04-2.7.1-3.2-.1-2.05-4.04-1.4-.6.28 1.31-1.77 1.21-2.04-2.93 6.61-11.51.42-13.8-1.45 14.21-6.7 11.3 3.26 4.24 2.79-2.01 1.58 3.53h6.84l1.58-3.53 2.8 2.01 3.26-4.24z" fill="#022531" stroke-width="none" opacity="1" transform="translate(0 1)" stroke="none"></path><path id="SvgjsPath5152" d="m96.51 113.01 1.67.79 3.93.1 1.96-.89-.74-3.01-1.27-3.98-2.6 5.23z" fill="#1a4758" stroke-width="none" opacity="1" transform="translate(0 1)" stroke="none"></path></g></g><g id="svga-group-hair-front"><path id="SvgjsPath8889" d="m98.8 61.4-13.7-3.5s-8 11.2-8.2 11.7c-.1.5-1.8 17.9-1.8 17.9l-2.3-17.4.9-8.4-2.6 8.5-.9 19.3-3.4-16.4 1.2-8.5-3 9.4-1.4 25.7-.5 12.9-3.7-10.7-1.5-21.6-.3 16.8L54 85l2.1-15.8-3.9 10-.8 6.8-2.9-11.6 5.7-9.5L59 52.3l10.7-9.4-14.1 9.8 6.7-11L81.9 34l7.5.6-5.3-2.8 9.8 1.8 5.4 4.3 3.6-3.1 4.3-1.8-2.1 2.5-.6 1.4 13.9-2.2 12.3 2.8-8.3.4 12.3 4.4L147.2 56l-12.8-7.4 11 9.2 2.2 15.1.6 6.5-3.8-8.4 3 11.4-.7 5.1-4 8.9-.3-14.4-5-10.9 3.2 11.6v16.8l-1.4 6.5-3.1-23.2-4.9-12.9 2.4 11.2-1.4 7.5-1.4-10.3-5.3-15.4 1.9 10.4-.9 5.9-1.6-8.6-4.3-12 1.6 8.4-3.2 13-1-16-3.5-7.3-12.7 4.9-3-.2z" fill="#d0bcd3" stroke-width="none" opacity="1" stroke="none"></path><path id="SvgjsPath8890" d="m99.3 59.1-19.2-7.2-6.2 9.8-.9 8.4 2.3 17.4-.4-19 1.1-7.4 5-7.4 18.3 5.4zm-.5 2.3-14.3-4.7L77 69.6l8.2-11.7 13.6 3.5zM70.3 89.5l-2.1-25 6.9-14.2L87.8 47l11.3 8-10.3-9.8L74 49.1l-7.4 13.8.2 11.1 3.5 15.5zm-7.1 23.1-2.3-14.8-.4-28 7-18.8 6.3-5.2-8.1 4.6L58 70.2l1.4 31.7 3.8 10.7zM51.4 86l.9-6.7 3.9-10-5.2 7.3.4 9.4zm2.8-21.1L60.9 53l8.8-10.1 20.7-3.4 7.2 3.7-7.4-5.9L69 41.2l-10 11-4.8 12.7zm29.9-33.1 5.3 2.8 9.5 7-6.3-7.2-8.5-2.6zm17.7 29.7 13-7.7 4.8 10.3L119 80l-1-16-3.5-7.3-12.7 4.8zm17.8-7.4 1.1 4.3 4.3 12 1.6 8.7-.5-7.6-3.4-11.5-3.1-5.9zm-18.8-5 8.9-5.2 10.7 1.3 9.2 12.5L119.3 47l-9.6-.4-8.9 2.5zm41.9 47.2c.1-1.2-.2-14.3-.2-14.3l-5-10.9-6.5-9.6 9.4 9.8s4.6 10.3 4.6 10.9-2.3 14.1-2.3 14.1zm5.4-17.1-3.8-8.4-4.7-9.3-6.3-5.2 9.4 3.9 5.4 19zm-1-23.4-12.8-7.4-9.5-4 10 .4 12.3 11z" fill="#be9bc4" stroke-width="none" opacity="1" stroke="none"></path><path id="SvgjsPath8891" d="m100.6 57.9 12.9-10 4.4 3 3.4 13.9-1.2 6.9-.6-7.6-3.1-12.1-3.8-.7-12 6.6zm.3-11.9c.3-.5 11-7.4 11-7.4l13.8 1.3 9.2 2.8 7.9 8.4-9.5-7.4-8.3-1-13.6-.5-10.5 3.8zm-2.1 3.9-10.2-8.8-18.9 1.8-8 9.7 9-7.5 17.4-2 10.7 6.8zm-27.9.7L66.7 55l-5.6 17 .8 27.2L63.5 71l4.3-15 3.1-5.4zm58-3 16.5 10s.7 10.6.9 9.9c.2-.7-3.3-9.7-3.3-9.7l-14.1-10.2zm3.9 10.4 6.9 3.5 4.7 9.3 3 11.4-5.8-13.4-3.8-6.6-5-4.2z" fill="#e2e0e2" stroke-width="none" opacity="1" stroke="none"></path></g><g id="svga-group-glasses-single-move" transform="matrix(1,0,0,1,0,0)"><g id="svga-group-glasses-single"></g></g></g></g></g><rect id="svga-credit-rect" width="200" height="15" x="0" y="185" fill="#ecf0f1" opacity="0.5" style="display: none;"></rect><text id="svga-credit-text" font-family="Avenir Next, Roboto, Helvetica, Arial, sans-serif" font-size="10px" text-anchor="start" font-weight="400" size="10px" anchor="start" weight="400" fill="#333333" x="33.40447998046875" y="182.60824704170227" style="display: none;"><tspan id="SvgjsTspan4510" dy="13" x="33.40447998046875">Created on AvatarMaker.com</tspan></text></g><defs id="SvgjsDefs4457"></defs></svg>